/* XPM */
static char *a4596f8f8b18472c9bdad691e3c36eeaf2qB21vWFnmonEp0[] = {
/* columns rows colors chars-per-pixel */
"64 64 12 1 ",
"  c None",
". c #565972",
"X c #D09964",
"o c #E4AB73",
"O c #F2CFAF",
"+ c #BCC1C8",
"@ c #CCCFD3",
"# c #CFD3DA",
"$ c #F9DFC7",
"% c #DCDFE4",
"& c #E8E9EC",
"* c #EEEFF1",
/* pixels */
"                                                                ",
"                                                                ",
"                                                                ",
"                                                                ",
"                                                                ",
"                                                                ",
"                                                                ",
"                                                                ",
"                                                                ",
"                                                                ",
"                                                                ",
"                                                                ",
"                                                                ",
"                                                                ",
"                                                                ",
"                                                                ",
"                                                                ",
"                                                                ",
"                                                                ",
"                                                                ",
"                                                                ",
"                                                                ",
"                                                                ",
"                                                                ",
"                                                                ",
"                                                                ",
"                                                                ",
"                                                                ",
"                                                                ",
"                                                                ",
"                                                                ",
"              ...........                                       ",
"             ..**********.                                      ",
"            .##.%%%%%%%%%%.                                     ",
"            .++.@@@@@@@@@@.                                     ",
"          ..........................................            ",
"          .&&&&&&&&&&&&&&&&&&&&&&&&&&&**************.           ",
"          .###########################%%%%%%%%%%%%%%.           ",
"          .##########################..................         ",
"         .............................X$$$$$$$$$$$$$$$.         ",
"         .XXXXXXXXXXXXXXXXXXXXXXXXXXXXX$$$$$$$$$$$$$$$.         ",
"         .o...........................XO.............O.         ",
"         .o.+########################.XO.%%%%%%%%%%%.O.         ",
"         .o...........................XO.............O.         ",
"         .ooooooooooooooooooooooooooooXOOOOOOOOOOOOOOO.         ",
"         .X...........................XO............XO.         ",
"         .X.O.          .XO.         .XO.          .XO.         ",
"         .....          ....         ....          ....         ",
"                                                                ",
"                                                                ",
"                                                                ",
"                                                                ",
"                                                                ",
"                                                                ",
"                                                                ",
"                                                                ",
"                                                                ",
"                                                                ",
"                                                                ",
"                                                                ",
"                                                                ",
"                                                                ",
"                                                                ",
"                                                                "
};
