/* XPM */
static char *_eb5fec36496429cc4f381fe523e9168H6XaJiRG0RIuatB5[] = {
/* columns rows colors chars-per-pixel */
"64 64 55 1 ",
"  c None",
". c #007B2C",
"X c #565972",
"o c #A3004C",
"O c #A4004D",
"+ c #CC005F",
"@ c #CF005F",
"# c #CD0060",
"$ c #D00060",
"% c #D80060",
"& c #D90060",
"* c #D90061",
"= c #BA4D66",
"- c #BA4E66",
"; c #E8607F",
": c #E8617F",
"> c #E9617F",
", c #009936",
"< c #009A36",
"1 c #009A37",
"2 c #00A536",
"3 c #00B033",
"4 c #00B034",
"5 c #00B134",
"6 c #5A964A",
"7 c #5A964B",
"8 c #5A974B",
"9 c #70BC5D",
"0 c #70BC5E",
"q c #71BC5E",
"w c #71BD5E",
"e c #4F5F92",
"r c #5368A7",
"t c #607BA5",
"y c #617BA5",
"u c #617BA6",
"i c #617CA6",
"p c #6377B7",
"a c #6378B7",
"s c #6378B8",
"d c #6478B8",
"f c #E96180",
"g c #789ACE",
"h c #799ACE",
"j c #799ACF",
"k c #799BCF",
"l c #90CB88",
"z c #90CC88",
"x c #90CC89",
"c c #98B3DC",
"v c #98B4DC",
"b c #99B4DC",
"n c #F4B4C0",
"m c #F4B5C0",
"M c #F5B5C0",
/* pixels */
"                                                                ",
"                                                                ",
"                                                                ",
"                                                                ",
"                                                                ",
"                                                                ",
"                                                                ",
"                                                                ",
"                                                                ",
"                                                                ",
"                                                                ",
"                                                                ",
"                                                                ",
"                                                                ",
"                                                                ",
"                                                                ",
"                                                                ",
"                                                                ",
"                                                                ",
"                                                                ",
"                                                                ",
"                                                                ",
"                                                                ",
"                                                                ",
"                                                                ",
"                                                                ",
"                                                                ",
"                                                                ",
"                                                                ",
"                                                                ",
"                                                                ",
"                                                                ",
"                         XXXXXXXXXXXXXXXXX                      ",
"                         X###+####XnnnnnnX                      ",
"                         X########X;;;;ffX                      ",
"                         X##+#####X;;;;;;X                      ",
"                         X%%%%%%+#X;;;;;;X                      ",
"                         X%%%%%%#+X;;;;;;X                      ",
"                         X#######+Xf;;;;;X                      ",
"                         X%%%#####X;;;;;;X                      ",
"                         X%%%###++X;;;;;;X                      ",
"                         X$+###+##X;;;;;;X                      ",
"                         XOoOOOoOOX------X                      ",
"                 XXXXXXXXXXXXXXXXXXXXXXXXXXXXX                  ",
"                 X113414411XllzlzXrpasXcccccbX                  ",
"                 X114413411XwwwwwXrappXkkkkkkX                  ",
"                 X114314311XwwwwwXrapdXkkkbccX                  ",
"                 X111114411XwwwwwXrsaaXkkkcbcX                  ",
"                 X111113411XwwwwwXrppdXkkkkkkX                  ",
"                 X114414411XwwwwwXrspsXkkkkkkX                  ",
"                 X114411111XwwwwwXrsppXkkkkkkX                  ",
"                 X114411111XwwwwwXrrsaXkkkkkkX                  ",
"                 X112111111XwwwwwXrrspXkkkkkkX                  ",
"                 X.........X77777XrrreXuuiuuuX                  ",
"                 XXXXXXXXXXXXXXXXXXXXXXXXXXXXX                  ",
"                                                                ",
"                                                                ",
"                                                                ",
"                                                                ",
"                                                                ",
"                                                                ",
"                                                                ",
"                                                                ",
"                                                                "
};
