/* XPM */
static char *_2f395ef09aa4b2ed2b3fa7dc1c929f3anRWZxzP50nsNlV8[] = {
/* columns rows colors chars-per-pixel */
"64 64 120 2 ",
"   c None",
".  c #020202",
"X  c #0B0B0B",
"o  c #141414",
"O  c #1B1B1B",
"+  c #242424",
"@  c #2B2B2B",
"#  c #3F3A2D",
"$  c #333333",
"%  c #383734",
"&  c #3F3C35",
"*  c #3C3C3C",
"=  c #644E01",
"-  c #6E570F",
";  c #705400",
":  c #725800",
">  c #7C5E00",
",  c #7C6000",
"<  c #464238",
"1  c #605738",
"2  c #434343",
"3  c #4B4B4B",
"4  c #535353",
"5  c #5B5B5B",
"6  c #646464",
"7  c #6C6C6C",
"8  c #737373",
"9  c #7B7B7B",
"0  c #866701",
"q  c #826708",
"w  c #886809",
"e  c #9F7B05",
"r  c #9E7D0D",
"t  c #AE8603",
"y  c #B28D16",
"u  c #B3901A",
"i  c #BA9A36",
"p  c #C29807",
"a  c #CB9F10",
"s  c #D4AA23",
"d  c #D9AE27",
"f  c #CCA836",
"g  c #FEC915",
"h  c #FFCB1C",
"j  c #FDCC24",
"k  c #FFCE2B",
"l  c #EFC336",
"z  c #F3C634",
"x  c #FECE36",
"c  c #FDCF3C",
"v  c #FFD141",
"b  c #FFD55C",
"n  c #FFD863",
"m  c #F9D569",
"M  c #FFDD7B",
"N  c #828282",
"B  c #8A8A8A",
"V  c #939393",
"C  c #9C9C9C",
"Z  c #A2A2A2",
"A  c #AAAAAA",
"S  c #B4B4B4",
"D  c #BCBCBC",
"F  c #FFE294",
"G  c #FFE59D",
"H  c #C3C3C3",
"J  c #C1C1C1",
"K  c gray77",
"L  c #C5C5C5",
"P  c #C8C8C8",
"I  c gray79",
"U  c #CBCBCB",
"Y  c gray80",
"T  c #CDCDCD",
"R  c #CECECE",
"E  c gray81",
"W  c #D0D0D0",
"Q  c gray82",
"!  c #D2D2D2",
"~  c LightGray",
"^  c gray83",
"/  c #D5D5D5",
"(  c gray84",
")  c #D7D7D7",
"_  c #D8D8D8",
"`  c gray85",
"'  c #DADADA",
"]  c gainsboro",
"[  c #DDDDDD",
"{  c #DFDFDF",
"}  c gray88",
"|  c #E2E2E2",
" . c gray89",
".. c #E4E4E4",
"X. c gray90",
"o. c #E7E7E7",
"O. c gray91",
"+. c #E9E9E9",
"@. c #EAEAEA",
"#. c gray92",
"$. c #ECECEC",
"%. c gray93",
"&. c #EEEEEE",
"*. c #EFEFEF",
"=. c gray94",
"-. c #F1F1F1",
";. c gray95",
":. c #F3F3F3",
">. c #F4F4F4",
",. c gray96",
"<. c #F6F6F6",
"1. c gray97",
"2. c #F8F8F8",
"3. c #F9F9F9",
"4. c gray98",
"5. c #FBFBFB",
"6. c gray99",
"7. c #FDFDFD",
"8. c #FEFEFE",
"9. c white",
/* pixels */
"                                                                                                                                ",
"                                                                                                                                ",
"                                                                                                                                ",
"                                                                                                                                ",
"                                                                                                                                ",
"                                                      O + @ $ @ @ @ + +                                                         ",
"                                                  @ % 3 4 4 4 4 3 3 4 3 * @                                                     ",
"                                                @ 3 4 4 5 5 4 3 4 4 4 3 3 * @                                                   ",
"                                              O $ 4 3 3 3 3 3 3 2 * 2 2 * 2 * @                                                 ",
"                                              + * 2 2 * * * * * * * * * % % * $                                                 ",
"                                              % * % X X o * * * * * % . X X @ % @                                               ",
"                                            O $ * X . 9.V o % * * * . 9.V . X % +                                               ",
"                                            O $ * . . V V X $ * * * . V V . . % @                                               ",
"                                            O $ * @ X . X $ % * * * @ . . . % * $                                               ",
"                                            + * * $ @ @ $ * * 2 * * * $ $ % * * $                                               ",
"                                            + % * * % % * < * * * * * * * * 2 * $                                               ",
"                                            + % 2 * * & f m v x x z l 1 * * 2 * @                                               ",
"                                            + * 2 * * i z G F k g h a e % * 2 * @                                               ",
"                                            O @ * * % u k M G b h p t - & * * * +                                               ",
"                                            O @ * * % % r x F n j 0 > # * $ * % O                                               ",
"                                            O @ $ % % % q s x c y ; + @ @ @ $ $ O                                               ",
"                                            O + @ % * % $ , z d : + + + @ @ @ + o                                               ",
"                                            O O + @ $ % $ @ w = O O O + @ + @ @ O                                               ",
"                                          o O O o + @ $ @ @ + + o o O + + + + + O                                               ",
"                                          O + O O + + @ @ O O O o o O O + O O O O                                               ",
"                                          o + O O O + + O o o o o o o o o o O O O                                               ",
"                                          o + + O O O O o 6 7 N N o o o o o O O O o                                             ",
"                                          O + O O O C Z B 9 B C V B 9 O + + + O o X                                             ",
"                                          + + + + S D D D S S A A S S D @ @ @ @ o X                                             ",
"                                      X X . . @ [ Y Y Q Q Q J D Q ( [ ' ..[ $ $ $ o                                             ",
"                                    . + @ o . . -.#.| | ' ( Y Q #.-.<.-.5.*.% X X . .                                           ",
"                                    O 3 * X . . 5.<.-.#.#...[ ..5.9.9.9.5.<.. o + @ O X                                         ",
"                                  . 4 * + . . . 5.9.5.*.<.-.#.*.5.5.9.9.9.9.. X + 3 @ O .                                       ",
"                                  @ 7 @ + X . . -.<.5.5.5.*.5.-.<.5.5.9.9.9.. X O @ 3 @ o                                       ",
"                                o 4 3 O O . . 9.-.<.<.5.5.9.5.<.5.<.9.5.5.9.9.. O + $ % o .                                     ",
"                              X + 7 @ o X . 9.5.5.5.<.<.5.5.9.9.<.-.9.<.-.9.9.9.X o @ 3 o o                                     ",
"                              . 5 5 + o X . 9.<.5.5.5.9.<.-.9.9.<.5.<.<.5.<.<.9.X X O * + o                                     ",
"                            . % 4 + O O . * 5.2.5.5.5.5.9.9.<.<.9.9.5.5.5.5.9.9.* X + o @ X .                                   ",
"                            o 3 % X O . * * 9.9.9.5.9.5.5.9.5.9.9.9.9.9.9.5.9.9.* X O O + O . .                                 ",
"                            % 3 + O o . * * 5.9.5.9.9.<.<.9.9.<.5.9.9.9.9.-.9.9.* X X o $ + X X                                 ",
"                          X 3 * X O . % * 5.<.-.9.9.9.9.5.<.<.5.5.5.5.9.9.<.9.5.9.* . X @ @ O X                                 ",
"                        X 2 @ o o X . % * -.<.9.9.5.5.9.5.5.5.9.9.<.5.9.9.9.5.5.9.* . . O $ + X                                 ",
"                        $ 3 + o X . % $ % <.9.9.5.5.5.5.5.5.9.9.9.*.5.9.5.9.9.9.9.* . . X @ o X                                 ",
"                        2 * O X . % @ @ Q -.9.5.<.9.5.5.5.9.9.9.9.9.5.*.5.9.5.5.-.* * . X + + X                                 ",
"                        o $ o . . $ @ @ Y ..-.5.5.5.<.5.9.5.5.9.9.9.5.-.-.9.-.*.| % * . X + @ X                                 ",
"                        + + . .   @ @ @ U ' | <.5.<.5.5.5.5.5.5.5.5.5.9.9.<.#.#.' $ % . X X + O .                               ",
"                                  @ + @ D Q ( #.-.5.9.<.-.9.5.5.5.<.<.9.2.-.*.| Q $ % . O X o X X                               ",
"                                  @ @ + S L U ( #.-.-.*.5.<.-.5.5.<.<.<.-.| ( U U $ % . O X o O X                               ",
"                                  @ @ @ S D J U ( | | ' ..-.*.-.-.*.*.*.#.( J D D @ $   O X o o X                               ",
"                                  @ @ @ S D J D U Y Y Y U Q [ [ ' ( Y ( ' U D S @ @ $                                           ",
"                                  $ @ @ @ @ @ D D J D S S D J L L D D J U D D + @ @ @                                           ",
"                                  $ @ @ @ @ @ @ @ @ @ @ @ @ @ @ @ @ @ @ @ @ @ @ @ @ @                                           ",
"                                    + + @ @ $ @ @ @ @ @ @ @ @ @ @ $ $ @ $ @ @ @ @ @                                             ",
"                                    $ @ + + @ @ @ @ @ $ @ @ @ @ $ $ @ @ @ @ $                                                   ",
"                                          $ $ @ + + + @ @ @ @ @ @ @ @ 5 6 7                                                     ",
"                                      9 9 8 7 6 6                 6 7 7 8 9 8 8                                                 ",
"                            7 8 8 8 9 9 9 9 8 6                   6 9 9 9 9 8 9 9 7                                             ",
"                        6 8 B B N 9 9 N 8 9 9 6                 7 9 9 8 9 9 7 8 V N 6                                           ",
"                        9 V A V 8 8 B B 7 9 N 5                 7 B N 5 N B 8 7 V Z 7                                           ",
"                        8 8 8 7 6 N C 7 5 8 B 5                 8 C N 5 9 V N 7 6 8 8                                           ",
"                                7 9 6 6   6 8 6                 7 8 7   7 7 9                                                   ",
"                                                                                                                                ",
"                                                                                                                                ",
"                                                                                                                                "
};
