/* XPM */
static char *_ff61a040cda4c0df3cffa2024de8b73zxeR6F8VrAZPu24C[] = {
/* columns rows colors chars-per-pixel */
"64 64 16 1 ",
"  c None",
". c #4F5168",
"X c #565972",
"o c #D49C65",
"O c #D39F6F",
"+ c #E4AB73",
"@ c #7C8B9F",
"# c #E7B481",
"$ c #E9BC8E",
"% c #DFC0A5",
"& c #F2CFAF",
"* c #ABBACD",
"= c #CBD0DC",
"- c #F7DBC1",
"; c #C3D3E8",
": c #E0E5F0",
/* pixels */
"                                                                ",
"                                                                ",
"                                                                ",
"                                                                ",
"                                                                ",
"                                                                ",
"                                                                ",
"                                                                ",
"                                                                ",
"                                                                ",
"                                                                ",
"                                                                ",
"                                                                ",
"                                                                ",
"                                                                ",
"                                                                ",
"                                                                ",
"                                                                ",
"                                                                ",
"                                                                ",
"                                                                ",
"                                                                ",
"                                                                ",
"                                                                ",
"                                                                ",
"                                                                ",
"                                                                ",
"                                                                ",
"                                                                ",
"                                                                ",
"                                                                ",
"                                                                ",
"                                                                ",
"                                                                ",
"                                                                ",
"            XXXXXXXXXXXXXXXXXXXXXXXXXXXXXXXXXXXXXXX             ",
"            X---------X+++++++++++++++++++++++++++X             ",
"            X&&&&&&&&&X+XXXXXXXXXXXX+XXXXXXXXXXXX+X             ",
"            X&&&&&&&&&X+X$###@@####X+X####@@####X+X             ",
"            X&&&&&&&&&X+X++++oo++++X+X++++oo++++X+X             ",
"            X&&&&&&&&&X+X++++oo++++X+X++++oo++++X+X             ",
"            X&&&&&&&&&X+X++++++++++X+X++++++++++X+X             ",
"            X&&&&&&&&&X+X++++++++++X+X++++++++++X+X             ",
"            X&&&&&&&&&X+X++++++++++X+X++++++++++X+X             ",
"            X&%&&&&&%&X+XXXXXXXXXXXX+XXXXXXXXXXXX+X             ",
"            X&%&%&%&%&X+OOOOOOOOOOOO+OOOOOOOOOOOO+X             ",
"            XXXXXXXXXXXXXXXXXXXXXXXXXXXXXXXXXXXXXXX             ",
"             X*X=X   X*X=X           .*.=.   X*X=X              ",
"             X*X=X   X*X=X           .*.=.   X*X=X              ",
"             X;X:X   X;X:X           .;.:.   X;X:X              ",
"             X;X:X   X;X:X           .;.:.   X;X:X              ",
"              XXX     XXX             ...     XXX               ",
"                                                                ",
"                                                                ",
"                                                                ",
"                                                                ",
"                                                                ",
"                                                                ",
"                                                                ",
"                                                                ",
"                                                                ",
"                                                                ",
"                                                                ",
"                                                                "
};
